
<svg width="189px" height="121px" viewBox="0 0 189 121" version="1.1" xmlns="http://www.w3.org/2000/svg" xmlns:xlink="http://www.w3.org/1999/xlink">
    <!-- Generator: Sketch 49 (51002) - http://www.bohemiancoding.com/sketch -->
    <desc>Created with Sketch.</desc>
    <defs>
        <path d="M103.809331,69.9786649 C74.9159981,56.6026653 28.9013326,30.3839992 0.0093333331,48.5773321 C0.0093333331,48.5773321 39.6013323,-18.3039995 121.463997,5.2373332 L142.867996,26.638666 L164.267996,41.0853323 L171.759996,60.3479985 L161.593329,64.6279984 C161.593329,64.6279984 145.90533,74.7946648 126.091997,74.7959981 C119.014664,74.7959981 111.413331,73.4986648 103.809331,69.9786649" id="path-1"></path>
        <linearGradient x1="-4.14100285%" y1="50.0004525%" x2="95.8593698%" y2="50.0004525%" id="linearGradient-3">
            <stop stop-color="#D1E4A5" offset="0%"></stop>
            <stop stop-color="#ACD479" offset="50%"></stop>
            <stop stop-color="#76B83F" offset="100%"></stop>
        </linearGradient>
        <path d="M0.166666663,16.6786662 C0.166666663,7.81466647 7.35199982,0.627999984 16.2173329,0.627999984 C25.0839994,0.627999984 32.2679992,7.81466647 32.2679992,16.6786662 C32.2679992,25.5439994 25.0839994,32.7306658 16.2173329,32.7306658 C7.35199982,32.7306658 0.166666663,25.5439994 0.166666663,16.6786662" id="path-4"></path>
        <linearGradient x1="0%" y1="50.0011214%" x2="100.000714%" y2="50.0011214%" id="linearGradient-6">
            <stop stop-color="#64C08A" offset="0%"></stop>
            <stop stop-color="#00A550" offset="50%"></stop>
            <stop stop-color="#00914C" offset="100%"></stop>
        </linearGradient>
        <path d="M102.926664,88.6279978 C102.926664,88.6279978 105.601331,76.8559981 96.5066643,67.226665 C96.5066643,67.226665 72.4306649,99.3293309 28.5559993,58.6653319 C28.5559993,58.6653319 64.938665,73.6466648 63.8679984,53.3146653 C62.7973318,32.9826658 24.2746661,4.09066656 1.26666663,0.881333311 C1.26666663,0.881333311 113.093331,0.881333311 129.679997,120.730664 C129.679997,120.730664 120.583997,96.6533309 102.926664,88.6279978" id="path-7"></path>
        <linearGradient x1="0.000207662756%" y1="49.9989097%" x2="99.9997612%" y2="49.9989097%" id="linearGradient-9">
            <stop stop-color="#64C08A" offset="0%"></stop>
            <stop stop-color="#00A550" offset="50%"></stop>
            <stop stop-color="#00914C" offset="100%"></stop>
        </linearGradient>
    </defs>
    <g id="Page-1" stroke="none" stroke-width="1" fill="none" fill-rule="evenodd">
        <g id="714464" transform="translate(-1034.000000, -490.000000)">
            <g id="g10" transform="translate(612.000000, 346.166700) scale(-1, 1) rotate(-180.000000) translate(-612.000000, -346.166700) translate(-0.000000, 0.666700)">
                <g id="asquad" transform="translate(1034.000000, 80.000000)">
                    <g id="g718" transform="translate(0.333322, 23.999992)">
                        <g id="g720-Clipped">
                            <mask id="mask-2" fill="white">
                                <use xlink:href="#path-1"></use>
                            </mask>
                            <g id="path722"></g>
                            <g id="g720" mask="url(#mask-2)" fill="url(#linearGradient-3)" fill-rule="nonzero">
                                <g id="g726">
                                    <g id="g728">
                                        <path d="M103.809331,69.9786649 C74.9159981,56.6026653 28.9013326,30.3839992 0.0093333331,48.5773321 C0.0093333331,48.5773321 39.6013323,-18.3039995 121.463997,5.2373332 L142.867996,26.638666 L164.267996,41.0853323 L171.759996,60.3479985 L161.593329,64.6279984 C161.593329,64.6279984 145.90533,74.7946648 126.091997,74.7959981 C119.014664,74.7959981 111.413331,73.4986648 103.809331,69.9786649" id="path738"></path>
                                    </g>
                                </g>
                            </g>
                        </g>
                    </g>
                    <g id="g740" transform="translate(132.333319, 87.999990)">
                        <g id="g742-Clipped">
                            <mask id="mask-5" fill="white">
                                <use xlink:href="#path-4"></use>
                            </mask>
                            <g id="path744"></g>
                            <g id="g742" mask="url(#mask-5)" fill="url(#linearGradient-6)" fill-rule="nonzero">
                                <g id="g748">
                                    <g id="g750">
                                        <path d="M0.166666663,16.6786662 C0.166666663,7.81466647 7.35199982,0.627999984 16.2173329,0.627999984 C25.0839994,0.627999984 32.2679992,7.81466647 32.2679992,16.6786662 C32.2679992,25.5439994 25.0839994,32.7306658 16.2173329,32.7306658 C7.35199982,32.7306658 0.166666663,25.5439994 0.166666663,16.6786662" id="path760"></path>
                                    </g>
                                </g>
                            </g>
                        </g>
                    </g>
                    <g id="g762" transform="translate(58.999988, -0.000008)">
                        <g id="g764-Clipped">
                            <mask id="mask-8" fill="white">
                                <use xlink:href="#path-7"></use>
                            </mask>
                            <g id="path766"></g>
                            <g id="g764" mask="url(#mask-8)" fill="url(#linearGradient-9)" fill-rule="nonzero">
                                <g id="g770">
                                    <g id="g772">
                                        <path d="M102.926664,88.6279978 C102.926664,88.6279978 105.601331,76.8559981 96.5066643,67.226665 C96.5066643,67.226665 72.4306649,99.3293309 28.5559993,58.6653319 C28.5559993,58.6653319 64.938665,73.6466648 63.8679984,53.3146653 C62.7973318,32.9826658 24.2746661,4.09066656 1.26666663,0.881333311 C1.26666663,0.881333311 113.093331,0.881333311 129.679997,120.730664 C129.679997,120.730664 120.583997,96.6533309 102.926664,88.6279978" id="path782"></path>
                                    </g>
                                </g>
                            </g>
                        </g>
                    </g>
                </g>
            </g>
        </g>
    </g>
</svg>